<svg width="202" height="40" viewBox="0 0 202 40" fill="none" xmlns="http://www.w3.org/2000/svg">
<g clip-path="url(#clip0_1_2)">
<path fill-rule="evenodd" clip-rule="evenodd" d="M25.5557 11.6853C23.9112 10.5865 21.9778 10 20 10V0C23.9556 0 27.8224 1.17298 31.1114 3.37061C34.4004 5.56823 36.9638 8.69181 38.4776 12.3463C39.9913 16.0008 40.3874 20.0222 39.6157 23.9018C38.844 27.7814 36.9392 31.3451 34.1421 34.1421C31.3451 36.9392 27.7814 38.844 23.9018 39.6157C20.0222 40.3874 16.0008 39.9913 12.3463 38.4776C8.6918 36.9638 5.56823 34.4004 3.37061 31.1114C1.17298 27.8224 0 23.9556 0 20H10C10 21.9778 10.5865 23.9112 11.6853 25.5557C12.7841 27.2002 14.3459 28.4819 16.1732 29.2388C18.0004 29.9957 20.0111 30.1937 21.9509 29.8078C23.8907 29.422 25.6725 28.4696 27.0711 27.0711C28.4696 25.6725 29.422 23.8907 29.8078 21.9509C30.1937 20.0111 29.9957 18.0004 29.2388 16.1732C28.4819 14.3459 27.2002 12.7841 25.5557 11.6853Z" fill="#007DFC"/>
<path fill-rule="evenodd" clip-rule="evenodd" d="M9.99999 5.28493e-06C9.99999 1.31322 9.74134 2.61358 9.23879 3.82684C8.73624 5.04009 7.99965 6.14248 7.07106 7.07107C6.14248 7.99966 5.04009 8.73625 3.82683 9.2388C2.61357 9.74134 1.31321 10 4.3711e-07 10L0 20C2.62643 20 5.22715 19.4827 7.65367 18.4776C10.0802 17.4725 12.285 15.9993 14.1421 14.1421C15.9993 12.285 17.4725 10.0802 18.4776 7.65367C19.4827 5.22715 20 2.62643 20 0L9.99999 5.28493e-06Z" fill="#007DFC"/>
<path d="M189.269 35C188.694 35 188.22 34.829 187.847 34.4869C187.492 34.1629 187.314 33.7579 187.314 33.2718C187.314 33.0558 187.356 32.8308 187.441 32.5968L188.457 29.4644L189.371 26.7102C188.558 26.0801 187.796 25.135 187.085 23.8749C186.374 22.5968 185.773 21.2556 185.282 19.8515C184.808 18.4293 184.486 17.1872 184.317 16.1251C184.283 15.9451 184.266 15.7651 184.266 15.5851C184.266 15.081 184.427 14.703 184.748 14.4509C185.07 14.1989 185.477 14.0729 185.968 14.0729C186.459 14.0729 186.806 14.1809 187.009 14.3969C187.229 14.595 187.373 14.883 187.441 15.261C187.813 17.0792 188.279 18.7174 188.838 20.1755C189.396 21.6157 189.981 22.5608 190.59 23.0108C190.844 22.1647 191.09 21.2376 191.327 20.2295C191.581 19.2214 191.75 18.5374 191.835 18.1773C192.19 16.6832 192.436 15.6661 192.571 15.126C192.673 14.73 192.834 14.4509 193.054 14.2889C193.274 14.1089 193.596 14.0189 194.019 14.0189C194.595 14.0189 195.069 14.1629 195.441 14.4509C195.814 14.721 196 15.063 196 15.4771C196 15.6031 195.992 15.7021 195.975 15.7741C195.297 18.6904 194.408 22.0117 193.308 25.7381C192.021 30.1485 191.174 32.8578 190.768 33.8659C190.616 34.2259 190.438 34.505 190.235 34.703C190.031 34.901 189.71 35 189.269 35Z" fill="#007DFC"/>
<path d="M175.026 28.1413C173.688 28.1413 172.503 27.8533 171.47 27.2772C170.437 26.6832 169.633 25.8461 169.057 24.766C168.481 23.6859 168.193 22.4347 168.193 21.0126C168.193 19.5905 168.473 18.3483 169.032 17.2862C169.59 16.2241 170.378 15.405 171.394 14.829C172.41 14.2529 173.586 13.9649 174.924 13.9649C176.16 13.9649 177.176 14.2439 177.972 14.802L178.251 8.32133L178.327 6.43114C178.344 5.9991 178.522 5.65707 178.861 5.40504C179.199 5.13501 179.623 5 180.131 5C180.689 5 181.147 5.16202 181.502 5.48605C181.875 5.79208 182.036 6.17912 181.985 6.64717C181.883 7.54726 181.782 9.54545 181.68 12.6418C181.595 15.7201 181.553 18.4383 181.553 20.7966C181.553 22.7948 181.595 24.0009 181.68 24.4149C181.765 24.757 181.985 25.216 182.34 25.7921C182.442 25.9541 182.493 26.1431 182.493 26.3591C182.493 26.8092 182.29 27.2232 181.883 27.6013C181.494 27.9613 181.062 28.1413 180.588 28.1413C180.368 28.1413 180.156 28.1053 179.953 28.0333C179.75 27.9793 179.589 27.8983 179.47 27.7903C178.962 27.3762 178.59 26.8722 178.353 26.2781C177.438 27.5203 176.329 28.1413 175.026 28.1413ZM175.051 25.063C175.559 25.063 176.033 24.919 176.473 24.631C176.914 24.3429 177.261 23.9739 177.515 23.5239C177.786 23.0558 177.921 22.5788 177.921 22.0927V18.0693C177.735 17.8173 177.345 17.5743 176.753 17.3402C176.177 17.0882 175.627 16.9622 175.102 16.9622C174.086 16.9622 173.29 17.3312 172.714 18.0693C172.156 18.7894 171.876 19.7885 171.876 21.0666C171.876 22.2547 172.173 23.2178 172.765 23.9559C173.375 24.694 174.137 25.063 175.051 25.063Z" fill="#007DFC"/>
<path d="M158.953 28.1413C157.615 28.1413 156.43 27.8533 155.397 27.2772C154.364 26.6832 153.56 25.8461 152.985 24.766C152.409 23.6859 152.121 22.4347 152.121 21.0126C152.121 19.5905 152.4 18.3483 152.959 17.2862C153.518 16.2241 154.305 15.405 155.321 14.829C156.337 14.2529 157.514 13.9649 158.852 13.9649C160.088 13.9649 161.104 14.2439 161.899 14.802L162.179 8.32133L162.255 6.43114C162.272 5.9991 162.45 5.65707 162.788 5.40504C163.127 5.13501 163.55 5 164.058 5C164.617 5 165.074 5.16202 165.43 5.48605C165.802 5.79208 165.963 6.17912 165.912 6.64717C165.811 7.54726 165.709 9.54545 165.608 12.6418C165.523 15.7201 165.481 18.4383 165.481 20.7966C165.481 22.7948 165.523 24.0009 165.608 24.4149C165.692 24.757 165.912 25.216 166.268 25.7921C166.37 25.9541 166.42 26.1431 166.42 26.3591C166.42 26.8092 166.217 27.2232 165.811 27.6013C165.421 27.9613 164.99 28.1413 164.515 28.1413C164.295 28.1413 164.084 28.1053 163.88 28.0333C163.677 27.9793 163.516 27.8983 163.398 27.7903C162.89 27.3762 162.517 26.8722 162.28 26.2781C161.366 27.5203 160.257 28.1413 158.953 28.1413ZM158.979 25.063C159.487 25.063 159.961 24.919 160.401 24.631C160.841 24.3429 161.188 23.9739 161.442 23.5239C161.713 23.0558 161.849 22.5788 161.849 22.0927V18.0693C161.662 17.8173 161.273 17.5743 160.68 17.3402C160.105 17.0882 159.554 16.9622 159.029 16.9622C158.013 16.9622 157.218 17.3312 156.642 18.0693C156.083 18.7894 155.804 19.7885 155.804 21.0666C155.804 22.2547 156.1 23.2178 156.693 23.9559C157.302 24.694 158.064 25.063 158.979 25.063Z" fill="#007DFC"/>
<path d="M148.965 23.6049C148.965 24.2349 149.016 24.73 149.118 25.09C149.219 25.45 149.329 25.7381 149.448 25.9541C149.566 26.1701 149.626 26.2961 149.626 26.3321C149.626 26.7822 149.465 27.1602 149.143 27.4662C148.838 27.7543 148.424 27.8983 147.899 27.8983C147.577 27.8983 147.221 27.7183 146.832 27.3582C146.459 26.9802 146.214 26.5662 146.095 26.1161C145.503 27.3222 144.394 27.9253 142.768 27.9253C141.278 27.9253 140.118 27.3672 139.289 26.2511C138.476 25.135 138.069 23.7129 138.069 21.9847V15.6121C138.069 15.198 138.239 14.865 138.577 14.613C138.933 14.3429 139.365 14.2079 139.873 14.2079C140.381 14.2079 140.812 14.3429 141.168 14.613C141.541 14.865 141.727 15.198 141.727 15.6121V21.9307C141.727 22.7048 141.854 23.3978 142.108 24.0099C142.362 24.622 142.751 24.928 143.276 24.928C143.936 24.928 144.419 24.613 144.724 23.9829C145.046 23.3528 145.206 22.2457 145.206 20.6616V15.6661C145.206 15.18 145.367 14.793 145.689 14.505C146.028 14.2169 146.468 14.0729 147.01 14.0729C147.568 14.0729 148.017 14.2169 148.356 14.505C148.711 14.793 148.889 15.18 148.889 15.6661L148.965 23.6049Z" fill="#007DFC"/>
<path d="M120.955 26.0351C120.955 25.5671 121.04 25.153 121.209 24.793C121.395 24.4329 121.692 24.2619 122.098 24.2799H122.352C122.505 22.2277 122.581 19.9685 122.581 17.5022L122.555 13.0468L122.428 13.0738C122.174 13.1458 121.946 13.0558 121.743 12.8038C121.556 12.5337 121.463 12.2187 121.463 11.8587C121.463 11.3546 121.599 10.9406 121.87 10.6166C122.157 10.2745 122.615 9.96849 123.241 9.69847C123.969 9.37443 124.748 9.14041 125.578 8.99639C126.407 8.83438 127.203 8.75337 127.965 8.75337C129.388 8.75337 130.649 8.96939 131.75 9.40144C132.867 9.81548 133.731 10.4275 134.34 11.2376C134.967 12.0297 135.28 12.9748 135.28 14.0729C135.28 15.045 134.975 15.9631 134.366 16.8272C133.773 17.6733 132.859 18.2313 131.623 18.5013C132.842 18.8434 133.714 19.3834 134.239 20.1215C134.78 20.8416 135.051 21.6607 135.051 22.5788C135.051 23.7309 134.755 24.712 134.162 25.522C133.587 26.3321 132.799 26.9442 131.8 27.3582C130.801 27.7723 129.684 27.9793 128.448 27.9793C127.703 27.9793 126.755 27.9343 125.603 27.8443C125.298 28.4563 124.68 28.7624 123.749 28.7624C122.97 28.7624 122.445 28.4293 122.174 27.7633H122.047C121.675 27.7633 121.395 27.6013 121.209 27.2772C121.04 26.9532 120.955 26.5391 120.955 26.0351ZM125.933 24.5499C126.594 24.604 127.288 24.631 128.016 24.631C129.049 24.631 129.87 24.4419 130.48 24.0639C131.089 23.6859 131.394 23.0918 131.394 22.2817C131.394 21.3996 131.106 20.7876 130.53 20.4455C129.972 20.0855 129.328 19.9055 128.6 19.9055C127.94 19.9055 127.466 19.8155 127.178 19.6355C126.89 19.4374 126.746 19.0324 126.746 18.4203C126.746 17.8443 126.898 17.4392 127.203 17.2052C127.525 16.9712 127.974 16.8542 128.549 16.8542C130.598 16.8542 131.623 16.0351 131.623 14.3969C131.623 13.6229 131.309 13.0288 130.683 12.6148C130.056 12.1827 129.117 11.9667 127.864 11.9667C127.406 11.9667 126.856 12.0477 126.213 12.2097C126.247 13.5959 126.264 15.36 126.264 17.5022C126.264 18.6724 126.238 19.6895 126.187 20.5535C126.153 21.3996 126.069 22.7318 125.933 24.5499Z" fill="#007DFC"/>
<path d="M112.378 28.1413C110.837 28.1413 109.533 27.8353 108.467 27.2232C107.417 26.6112 106.63 25.7651 106.105 24.685C105.58 23.6049 105.317 22.3807 105.317 21.0126C105.317 19.6445 105.614 18.4293 106.206 17.3672C106.816 16.2871 107.637 15.45 108.67 14.856C109.72 14.2619 110.888 13.9649 112.175 13.9649C113.326 13.9649 114.376 14.2079 115.324 14.694C116.289 15.18 117.043 15.8821 117.585 16.8002C118.144 17.7003 118.423 18.7624 118.423 19.9865C118.423 20.7606 118.287 21.3186 118.017 21.6607C117.763 21.9847 117.322 22.1467 116.696 22.1467H108.492C108.492 22.5788 108.636 23.0198 108.924 23.4698C109.212 23.9019 109.644 24.2709 110.219 24.577C110.795 24.883 111.481 25.036 112.277 25.036C112.988 25.036 113.546 24.928 113.953 24.712C114.359 24.4779 114.782 24.1359 115.223 23.6859C115.544 23.3798 115.875 23.2268 116.213 23.2268C116.603 23.2268 116.967 23.3888 117.305 23.7129C117.644 24.0189 117.813 24.3699 117.813 24.766C117.813 25.09 117.712 25.405 117.509 25.7111C117.153 26.3051 116.552 26.8632 115.705 27.3852C114.859 27.8893 113.75 28.1413 112.378 28.1413ZM115.07 19.7165C115.223 19.7165 115.316 19.6895 115.35 19.6355C115.401 19.5815 115.426 19.4824 115.426 19.3384C115.426 18.6364 115.104 18.0513 114.461 17.5833C113.834 17.1152 113.055 16.8812 112.124 16.8812C111.379 16.8812 110.727 17.0342 110.168 17.3402C109.627 17.6463 109.212 18.0243 108.924 18.4743C108.636 18.9064 108.492 19.3204 108.492 19.7165H115.07Z" fill="#007DFC"/>
<path d="M97.878 28.1143C96.7096 28.1143 95.6683 27.8263 94.7539 27.2502C93.8396 26.6562 93.1877 25.8731 92.7983 24.901C92.6967 24.631 92.6459 24.4059 92.6459 24.2259C92.6459 23.8479 92.8321 23.4879 93.2046 23.1458C93.5771 22.8038 93.9835 22.6328 94.4238 22.6328C94.6777 22.6328 94.8809 22.6958 95.0333 22.8218C95.1857 22.9298 95.3042 23.0378 95.3889 23.1458C95.4736 23.2358 95.5244 23.2988 95.5413 23.3348C96.0323 23.9469 96.4387 24.3789 96.7604 24.631C97.0821 24.883 97.4716 25.009 97.9288 25.009C98.3521 25.009 98.7161 24.919 99.0209 24.739C99.3257 24.541 99.4781 24.2709 99.4781 23.9289C99.4781 23.5509 99.3003 23.2538 98.9447 23.0378C98.5891 22.8218 98.0134 22.5788 97.2176 22.3087C96.3371 21.9847 95.6175 21.6787 95.0587 21.3906C94.5169 21.1026 94.0343 20.6796 93.611 20.1215C93.2046 19.5455 93.0015 18.8164 93.0015 17.9343C93.0015 17.0522 93.2385 16.2961 93.7126 15.6661C94.1867 15.018 94.8132 14.523 95.5921 14.1809C96.3879 13.8389 97.243 13.6679 98.1573 13.6679C99.1394 13.6679 99.986 13.8659 100.697 14.2619C101.425 14.64 101.976 15.153 102.348 15.8011C102.721 16.4311 102.907 17.1062 102.907 17.8263C102.907 18.3123 102.78 18.6814 102.526 18.9334C102.272 19.1854 101.849 19.3114 101.256 19.3114C100.731 19.3114 100.367 19.2214 100.164 19.0414C99.9776 18.8614 99.859 18.6094 99.8082 18.2853C99.7574 17.8353 99.622 17.4752 99.4019 17.2052C99.1987 16.9352 98.7838 16.8002 98.1573 16.8002C97.6832 16.8002 97.3107 16.8902 97.0398 17.0702C96.7858 17.2502 96.6588 17.5023 96.6588 17.8263C96.6588 18.2223 96.8366 18.5284 97.1922 18.7444C97.5647 18.9604 98.1573 19.1944 98.9701 19.4464C99.8336 19.7345 100.545 20.0225 101.104 20.3105C101.662 20.5806 102.145 20.9946 102.551 21.5527C102.958 22.0927 103.161 22.8128 103.161 23.7129C103.161 24.739 102.89 25.5851 102.348 26.2511C101.806 26.9172 101.129 27.3942 100.316 27.6823C99.5035 27.9703 98.6907 28.1143 97.878 28.1143Z" fill="#007DFC"/>
<path d="M84.4497 28.1413C82.9089 28.1413 81.6051 27.8353 80.5383 27.2232C79.4885 26.6112 78.7012 25.7651 78.1763 24.685C77.6514 23.6049 77.3889 22.3807 77.3889 21.0126C77.3889 19.6445 77.6852 18.4293 78.2779 17.3672C78.8874 16.2871 79.7087 15.45 80.7415 14.856C81.7913 14.2619 82.9597 13.9649 84.2465 13.9649C85.3979 13.9649 86.4477 14.2079 87.3959 14.694C88.3611 15.18 89.1146 15.8821 89.6564 16.8002C90.2152 17.7003 90.4945 18.7624 90.4945 19.9865C90.4945 20.7606 90.3591 21.3186 90.0882 21.6607C89.8342 21.9847 89.3939 22.1467 88.7674 22.1467H80.5637C80.5637 22.5788 80.7077 23.0198 80.9955 23.4698C81.2834 23.9019 81.7151 24.2709 82.2908 24.577C82.8665 24.883 83.5523 25.036 84.3481 25.036C85.0593 25.036 85.618 24.928 86.0244 24.712C86.4308 24.4779 86.8541 24.1359 87.2943 23.6859C87.6161 23.3798 87.9462 23.2268 88.2849 23.2268C88.6743 23.2268 89.0384 23.3888 89.377 23.7129C89.7157 24.0189 89.885 24.3699 89.885 24.766C89.885 25.09 89.7834 25.405 89.5802 25.7111C89.2246 26.3051 88.6235 26.8632 87.7769 27.3852C86.9303 27.8893 85.8212 28.1413 84.4497 28.1413ZM87.1419 19.7165C87.2943 19.7165 87.3875 19.6895 87.4213 19.6355C87.4721 19.5815 87.4975 19.4824 87.4975 19.3384C87.4975 18.6364 87.1758 18.0513 86.5324 17.5833C85.9059 17.1152 85.127 16.8812 84.1957 16.8812C83.4507 16.8812 82.7988 17.0342 82.24 17.3402C81.6982 17.6463 81.2834 18.0243 80.9955 18.4743C80.7077 18.9064 80.5637 19.3204 80.5637 19.7165H87.1419Z" fill="#007DFC"/>
<path d="M69.0612 14.0189C70.2973 14.0189 71.3894 14.3159 72.3376 14.91C73.3028 15.4861 74.0478 16.3051 74.5727 17.3672C75.0976 18.4113 75.36 19.6355 75.36 21.0396C75.36 22.4617 75.0891 23.6949 74.5473 24.739C74.0224 25.7831 73.2774 26.5932 72.3122 27.1692C71.3471 27.7273 70.238 28.0063 68.985 28.0063C68.2739 28.0063 67.5966 27.9343 66.9531 27.7903C66.3097 27.6283 65.8356 27.4663 65.5308 27.3042L65.5054 29.8965C65.4716 31.0126 65.4546 31.8677 65.4546 32.4617C65.4546 32.8938 65.2768 33.2448 64.9213 33.5149C64.5657 33.7849 64.117 33.9199 63.5751 33.9199C62.9994 33.9199 62.5507 33.7669 62.229 33.4608C61.9073 33.1548 61.7634 32.7678 61.7973 32.2997C61.865 31.5257 61.9073 30.6616 61.9242 29.7075C61.9412 28.7534 61.9496 27.5563 61.9496 26.1161L61.975 22.9298C62.0089 21.3456 62.0258 19.9325 62.0258 18.6904C62.0258 18.2223 61.9835 17.8713 61.8988 17.6373C61.8311 17.3852 61.7211 17.1692 61.5687 16.9892C61.4163 16.8092 61.3062 16.6652 61.2385 16.5572C61.1708 16.4311 61.1369 16.2871 61.1369 16.1251C61.1369 15.7111 61.357 15.306 61.7973 14.91C62.2375 14.514 62.6862 14.3159 63.1434 14.3159C63.3974 14.3159 63.6259 14.4059 63.8291 14.586C64.2355 14.982 64.5657 15.423 64.8197 15.9091C65.2091 15.369 65.7594 14.919 66.4706 14.559C67.1817 14.1989 68.0453 14.0189 69.0612 14.0189ZM68.5279 25.009C69.5269 25.009 70.2973 24.658 70.8391 23.9559C71.3979 23.2538 71.6773 22.2547 71.6773 20.9586C71.6773 19.7345 71.4317 18.7894 70.9407 18.1233C70.4497 17.4392 69.73 17.0972 68.7818 17.0972C68.1723 17.0972 67.6389 17.2232 67.1817 17.4752C66.7246 17.7273 66.369 18.0423 66.115 18.4203C65.861 18.7804 65.734 19.1224 65.734 19.4464L65.6832 24.2259C65.7679 24.3699 66.1235 24.541 66.75 24.739C67.3765 24.919 67.9691 25.009 68.5279 25.009Z" fill="#007DFC"/>
<path d="M52.6798 27.8983C51.4099 27.8983 50.2669 27.6193 49.251 27.0612C48.252 26.4851 47.4646 25.7381 46.8889 24.82C46.3302 23.8839 46.0508 22.8848 46.0508 21.8227C46.0508 21.1386 46.2117 20.6436 46.5334 20.3375C46.872 20.0315 47.3038 19.8785 47.8287 19.8785C49.0647 19.8785 49.7082 20.4275 49.759 21.5257C49.8098 22.4437 50.123 23.1548 50.6987 23.6589C51.2744 24.1449 51.9348 24.3879 52.6798 24.3879C53.3232 24.3879 53.8989 24.2349 54.4069 23.9289C54.9149 23.6229 55.1688 23.1728 55.1688 22.5788C55.1688 22.1107 55.008 21.7237 54.6863 21.4176C54.3646 21.0936 53.9836 20.8506 53.5433 20.6886C53.12 20.5086 52.5274 20.3015 51.7655 20.0675C50.7834 19.7795 49.9114 19.4644 49.1494 19.1224C48.3875 18.7804 47.6678 18.2313 46.9905 17.4752C46.3302 16.7012 46 15.7111 46 14.5049C46 13.4068 46.2794 12.4167 46.8381 11.5347C47.4138 10.6526 48.1843 9.9685 49.1494 9.48245C50.1146 8.9784 51.1728 8.72637 52.3242 8.72637C53.5264 8.72637 54.6101 8.9964 55.5752 9.53645C56.5573 10.0585 57.3277 10.7606 57.8865 11.6427C58.4453 12.5248 58.7246 13.4518 58.7246 14.4239C58.7246 15.6121 58.1151 16.2061 56.8959 16.2061C56.371 16.2061 55.9731 16.0711 55.7022 15.8011C55.4482 15.5311 55.245 15.09 55.0927 14.4779C54.9403 13.8659 54.627 13.3348 54.1529 12.8848C53.6957 12.4347 53.0862 12.2097 52.3242 12.2097C51.5792 12.2097 50.9527 12.4257 50.4447 12.8578C49.9368 13.2718 49.6828 13.8389 49.6828 14.559C49.6828 15.063 49.869 15.432 50.2415 15.6661C50.631 15.9001 51.3675 16.1881 52.4512 16.5302C52.5528 16.5662 52.6713 16.6112 52.8068 16.6652C52.9422 16.7012 53.0862 16.7462 53.2386 16.8002C54.1698 17.1062 55.0249 17.4572 55.8038 17.8533C56.5827 18.2493 57.2854 18.8344 57.9119 19.6085C58.5384 20.3825 58.8516 21.3456 58.8516 22.4977C58.8516 23.5419 58.5722 24.4779 58.0135 25.306C57.4716 26.1161 56.7266 26.7552 55.7784 27.2232C54.8471 27.6733 53.8143 27.8983 52.6798 27.8983Z" fill="#007DFC"/>
</g>
<defs>
<clipPath id="clip0_1_2">
<rect width="202" height="40" fill="white"/>
</clipPath>
</defs>
</svg>
